<svg width="700" height="700" xmlns="http://www.w3.org/2000/svg">
 <!--! Font Awesome Pro 6.2.1 by @fontawesome - https://fontawesome.com License - https://fontawesome.com/license (Commercial License) Copyright 2022 Fonticons, Inc. -->

 <g>
  <title>Layer 1</title>
  <g id="svg_8">
   <path stroke="#000000" opacity="undefined" d="m349.90909,658.81817c-170.99447,0 -309.5,-138.50553 -309.5,-309.5c0,-170.99447 138.50553,-309.5 309.5,-309.5c170.99447,0 309.5,138.50553 309.5,309.5c0,170.99447 -138.50553,309.5 -309.5,309.5z" id="svg_3" fill="#ffffff" stroke-width="30"/>
   <path stroke="null" d="m245.89592,141.29185l52.00658,0c14.38307,0 26.00329,11.62022 26.00329,26.00329l0,78.00988l-104.01317,0l0,-78.00988c0,-14.38307 11.62022,-26.00329 26.00329,-26.00329zm-104.01317,208.02634c0,-43.06795 34.94192,-78.00988 78.00988,-78.00988l104.01317,0c43.06795,0 78.00988,34.94192 78.00988,78.00988l0,169.0214c0,21.53398 -17.47096,39.00494 -39.00494,39.00494l-182.02304,0c-21.53398,0 -39.00494,-17.47096 -39.00494,-39.00494l0,-169.0214zm195.02469,65.00823c0,-35.91705 -29.09118,-65.00823 -65.00823,-65.00823s-65.00823,29.09118 -65.00823,65.00823s29.09118,65.00823 65.00823,65.00823s65.00823,-29.09118 65.00823,-65.00823zm65.00823,-221.02798c0,14.38307 -11.62022,26.00329 -26.00329,26.00329s-26.00329,-11.62022 -26.00329,-26.00329s11.62022,-26.00329 26.00329,-26.00329s26.00329,11.62022 26.00329,26.00329zm52.00658,26.00329c-14.38307,0 -26.00329,-11.62022 -26.00329,-26.00329s11.62022,-26.00329 26.00329,-26.00329s26.00329,11.62022 26.00329,26.00329s-11.62022,26.00329 -26.00329,26.00329zm104.01317,-26.00329c0,14.38307 -11.62022,26.00329 -26.00329,26.00329s-26.00329,-11.62022 -26.00329,-26.00329s11.62022,-26.00329 26.00329,-26.00329s26.00329,11.62022 26.00329,26.00329zm-26.00329,104.01317c-14.38307,0 -26.00329,-11.62022 -26.00329,-26.00329s11.62022,-26.00329 26.00329,-26.00329s26.00329,11.62022 26.00329,26.00329s-11.62022,26.00329 -26.00329,26.00329zm26.00329,52.00658c0,14.38307 -11.62022,26.00329 -26.00329,26.00329s-26.00329,-11.62022 -26.00329,-26.00329s11.62022,-26.00329 26.00329,-26.00329s26.00329,11.62022 26.00329,26.00329zm-104.01317,-52.00658c-14.38307,0 -26.00329,-11.62022 -26.00329,-26.00329s11.62022,-26.00329 26.00329,-26.00329s26.00329,11.62022 26.00329,26.00329s-11.62022,26.00329 -26.00329,26.00329z" id="svg_1"/>
   <rect fill="none" id="svg_5" height="700" width="696" y="-0.68181" x="1.90909" stroke="null"/>
  </g>
 </g>
</svg>