<svg width="700" height="700" xmlns="http://www.w3.org/2000/svg">
 <!--! Font Awesome Pro 6.2.1 by @fontawesome - https://fontawesome.com License - https://fontawesome.com/license (Commercial License) Copyright 2022 Fonticons, Inc. -->

 <g>
  <title>Layer 1</title>
  <g id="svg_5">
   <path opacity="undefined" d="m351.50001,687c-185.9116,0 -336.5,-150.5884 -336.5,-336.5c0,-185.9116 150.5884,-336.5 336.5,-336.5c185.9116,0 336.5,150.5884 336.5,336.5c0,185.9116 -150.5884,336.5 -336.5,336.5z" id="svg_3" fill="#ffffff" stroke-width="5" stroke="#000000"/>
   <path d="m232.5,111l60.25,0c16.66289,0 30.125,13.46211 30.125,30.125l0,90.375l-120.5,0l0,-90.375c0,-16.66289 13.46211,-30.125 30.125,-30.125zm-120.5,241c0,-49.89453 40.48047,-90.375 90.375,-90.375l120.5,0c49.89453,0 90.375,40.48047 90.375,90.375l0,195.8125c0,24.94727 -20.24023,45.1875 -45.1875,45.1875l-210.875,0c-24.94727,0 -45.1875,-20.24023 -45.1875,-45.1875l0,-195.8125zm225.9375,75.3125c0,-41.61016 -33.70234,-75.3125 -75.3125,-75.3125s-75.3125,33.70234 -75.3125,75.3125s33.70234,75.3125 75.3125,75.3125s75.3125,-33.70234 75.3125,-75.3125zm75.3125,-256.0625c0,16.66289 -13.46211,30.125 -30.125,30.125s-30.125,-13.46211 -30.125,-30.125s13.46211,-30.125 30.125,-30.125s30.125,13.46211 30.125,30.125zm60.25,30.125c-16.66289,0 -30.125,-13.46211 -30.125,-30.125s13.46211,-30.125 30.125,-30.125s30.125,13.46211 30.125,30.125s-13.46211,30.125 -30.125,30.125zm120.5,-30.125c0,16.66289 -13.46211,30.125 -30.125,30.125s-30.125,-13.46211 -30.125,-30.125s13.46211,-30.125 30.125,-30.125s30.125,13.46211 30.125,30.125zm-30.125,120.5c-16.66289,0 -30.125,-13.46211 -30.125,-30.125s13.46211,-30.125 30.125,-30.125s30.125,13.46211 30.125,30.125s-13.46211,30.125 -30.125,30.125zm30.125,60.25c0,16.66289 -13.46211,30.125 -30.125,30.125s-30.125,-13.46211 -30.125,-30.125s13.46211,-30.125 30.125,-30.125s30.125,13.46211 30.125,30.125zm-120.5,-60.25c-16.66289,0 -30.125,-13.46211 -30.125,-30.125s13.46211,-30.125 30.125,-30.125s30.125,13.46211 30.125,30.125s-13.46211,30.125 -30.125,30.125z" id="svg_1" stroke="null"/>
  </g>
 </g>
</svg>